<svg width="151.6981231689453px" height="92.95999908447266px" xmlns="http://www.w3.org/2000/svg" viewBox="174.15093841552735 28.520000457763672 151.6981231689453 92.95999908447266" style="background: rgba(0, 0, 0, 0);" preserveAspectRatio="xMidYMid"><defs><filter id="editing-hole" x="-100%" y="-100%" width="300%" height="300%"><feFlood flood-color="#000" result="black"></feFlood><feMorphology operator="dilate" radius="2" in="SourceGraphic" result="erode"></feMorphology><feGaussianBlur in="erode" stdDeviation="4" result="blur"></feGaussianBlur><feOffset in="blur" dx="2" dy="2" result="offset"></feOffset><feComposite operator="atop" in="offset" in2="black" result="merge"></feComposite><feComposite operator="in" in="merge" in2="SourceGraphic" result="inner-shadow"></feComposite></filter></defs><g filter="url(#editing-hole)"><g transform="translate(202.77268615365028, 91.10000228881836)"><path d="M18.72-21.25L18.72-21.25L18.72-21.25Q19.41-22.63 19.41-23.92L19.41-23.92L19.41-23.92Q19.41-25.21 19.27-25.92L19.27-25.92L19.27-25.92Q19.14-26.63 18.81-27.19L18.81-27.19L18.81-27.19Q18.12-28.38 16.74-28.38L16.74-28.38L16.74-28.38Q15.04-28.38 13.66-27.14L13.66-27.14L13.66-27.14Q12.19-25.85 12.19-23.83L12.19-23.83L12.19-23.83Q12.19-22.54 13.09-21.55L13.09-21.55L13.09-21.55Q13.98-20.56 15.36-19.64L15.36-19.64L15.36-19.64Q16.74-18.72 18.31-17.80L18.31-17.80L18.31-17.80Q19.87-16.88 21.25-15.78L21.25-15.78L21.25-15.78Q24.43-13.25 24.43-9.84L24.43-9.84L24.43-9.84Q24.43-7.54 23.21-5.59L23.21-5.59L23.21-5.59Q21.99-3.63 19.96-2.21L19.96-2.21L19.96-2.21Q15.55 0.92 9.71 0.92L9.71 0.92L9.71 0.92Q4.97 0.92 2.53-0.62L2.53-0.62L2.53-0.62Q0.09-2.16 0.09-4.51L0.09-4.51L0.09-4.51Q0.09-8.69 3.36-9.75L3.36-9.75L3.36-9.75Q4.28-10.07 5.68-10.07L5.68-10.07L5.68-10.07Q7.08-10.07 8.69-9.48L8.69-9.48L8.69-9.48Q7.96-7.59 7.96-5.89L7.96-5.89L7.96-5.89Q7.96-2.21 10.58-2.21L10.58-2.21L10.58-2.21Q12.28-2.21 13.69-3.45L13.69-3.45L13.69-3.45Q15.09-4.69 15.09-6.09L15.09-6.09L15.09-6.09Q15.09-7.50 14.19-8.51L14.19-8.51L14.19-8.51Q13.29-9.52 11.96-10.33L11.96-10.33L11.96-10.33Q10.63-11.13 9.08-11.91L9.08-11.91L9.08-11.91Q7.54-12.70 6.21-13.80L6.21-13.80L6.21-13.80Q3.08-16.33 3.08-20.38L3.08-20.38L3.08-20.38Q3.08-23 4.37-25.05L4.37-25.05L4.37-25.05Q5.66-27.09 7.73-28.47L7.73-28.47L7.73-28.47Q11.87-31.28 16.95-31.28L16.95-31.28L16.95-31.28Q22.03-31.28 24.50-29.76L24.50-29.76L24.50-29.76Q26.96-28.24 26.96-25.67L26.96-25.67L26.96-25.67Q26.96-23.41 25.21-21.99L25.21-21.99L25.21-21.99Q23.69-20.79 21.85-20.79L21.85-20.79L21.85-20.79Q20.01-20.79 18.72-21.25ZM44.62-22.68L44.62-22.68L44.62-22.68Q46.14-24.38 48.76-24.38L48.76-24.38L48.76-24.38Q50.37-24.38 51.61-23.51L51.61-23.51L51.61-23.51Q52.85-22.63 52.85-21.00L52.85-21.00L52.85-21.00Q52.85-19.37 52.35-17.62L52.35-17.62L52.35-17.62Q51.84-15.87 51.06-14.08L51.06-14.08L51.06-14.08Q49.50-10.58 47.33-7.68L47.33-7.68L47.33-7.68Q44.30-3.50 41.38-1.29L41.38-1.29L41.38-1.29Q38.46 0.92 35.28 0.92L35.28 0.92L35.28 0.92Q32.71 0.92 31.14 0.32L31.14 0.32L31.14 0.32Q30.87-9.34 30.52-12.79L30.52-12.79L30.52-12.79Q30.18-16.24 29.90-18.12L29.90-18.12L29.90-18.12Q29.44-21.80 28.06-22.68L28.06-22.68L28.06-22.68Q29.12-23.60 30.15-23.99L30.15-23.99L30.15-23.99Q31.19-24.38 33.33-24.38L33.33-24.38L33.33-24.38Q35.47-24.38 36.98-22.70L36.98-22.70L36.98-22.70Q38.50-21.02 38.80-18.05L38.80-18.05L38.80-18.05Q39.10-15.09 39.10-11.50L39.10-11.50L39.10-11.50Q39.10-7.91 38.82-3.59L38.82-3.59L38.82-3.59Q40.25-4.60 41.77-7.68L41.77-7.68L41.77-7.68Q43.84-11.96 44.57-17.11L44.57-17.11L44.57-17.11Q44.80-18.68 44.80-20.33L44.80-20.33L44.80-20.33Q44.80-21.99 44.62-22.68ZM72.73-7.77L72.73-7.77L72.73-7.77Q73.88-6.99 73.88-5.27L73.88-5.27L73.88-5.27Q73.88-3.54 73.00-2.44L73.00-2.44L73.00-2.44Q72.13-1.33 70.70-0.60L70.70-0.60L70.70-0.60Q67.76 0.92 64.58 0.92L64.58 0.92L64.58 0.92Q61.41 0.92 59.55 0.23L59.55 0.23L59.55 0.23Q57.68-0.46 56.44-1.75L56.44-1.75L56.44-1.75Q54.00-4.19 54.00-8.65L54.00-8.65L54.00-8.65Q54.00-15.59 57.78-19.83L57.78-19.83L57.78-19.83Q61.82-24.38 68.86-24.38L68.86-24.38L68.86-24.38Q73.23-24.38 75.39-22.54L75.39-22.54L75.39-22.54Q77.00-21.16 77.00-18.91L77.00-18.91L77.00-18.91Q77.00-10.81 63.02-10.81L63.02-10.81L63.02-10.81Q62.84-9.61 62.84-8.60L62.84-8.60L62.84-8.60Q62.84-6.49 63.78-5.68L63.78-5.68L63.78-5.68Q64.72-4.88 66.47-4.88L66.47-4.88L66.47-4.88Q68.22-4.88 70.08-5.68L70.08-5.68L70.08-5.68Q71.94-6.49 72.73-7.77ZM63.34-12.79L63.34-12.79L63.34-12.79Q66.61-12.79 68.49-14.81L68.49-14.81L68.49-14.81Q70.38-16.74 70.38-19.83L70.38-19.83L70.38-19.83Q70.38-20.88 69.99-21.46L69.99-21.46L69.99-21.46Q69.60-22.03 68.82-22.03L68.82-22.03L68.82-22.03Q68.03-22.03 67.37-21.73L67.37-21.73L67.37-21.73Q66.70-21.44 66.01-20.42L66.01-20.42L66.01-20.42Q64.31-18.12 63.34-12.79ZM79.30-4.60L79.30-4.60L79.30-4.60Q79.30-5.84 79.95-8.97L79.95-8.97L82.39-21.39L79.67-21.39L79.86-22.77L79.86-22.77Q85.38-24.43 90.71-28.47L90.71-28.47L92.92-28.47L91.82-23.46L95.40-23.46L94.99-21.39L91.45-21.39L89.10-8.97L89.10-8.97Q88.50-6.12 88.50-5.15L88.50-5.15L88.50-5.15Q88.50-2.94 90.44-2.48L90.44-2.48L90.44-2.48Q89.98-0.92 88.32 0L88.32 0L88.32 0Q86.66 0.92 84.32 0.92L84.32 0.92L84.32 0.92Q81.97 0.92 80.64-0.55L80.64-0.55L80.64-0.55Q79.30-2.02 79.30-4.60Z" fill="#ccc"></path></g></g><style>text {
  font-size: 64px;
  font-family: Arial Black;
  dominant-baseline: central;
  text-anchor: middle;
}</style></svg>